<?xml version="1.0" encoding="UTF-8"?>
<svg id="Layer_2" data-name="Layer 2" xmlns="http://www.w3.org/2000/svg" xmlns:xlink="http://www.w3.org/1999/xlink" viewBox="0 0 1366 656.35">
  <defs>
    <style>
      .cls-1 {
        fill: none;
      }

      .cls-2 {
        clip-path: url(#clippath);
      }

      .cls-3 {
        fill: #f3a368;
      }

      .cls-4, .cls-5 {
        fill: #f5f1eb;
      }

      .cls-6 {
        fill: #325027;
      }

      .cls-7 {
        fill: #145400;
      }

      .cls-8 {
        fill: #3e5b34;
      }

      .cls-9 {
        fill: #556e4c;
      }

      .cls-10 {
        fill: #27810e;
      }

      .cls-11 {
        fill: #47623d;
      }

      .cls-12 {
        fill: #2e4c22;
      }

      .cls-13 {
        fill: #3c5932;
      }

      .cls-14 {
        fill: #304e25;
      }

      .cls-15 {
        fill: #308717;
      }

      .cls-16 {
        fill: #3a5730;
      }

      .cls-17 {
        fill: #38552d;
      }

      .cls-18 {
        fill: #49643f;
      }

      .cls-19 {
        fill: #45603b;
      }

      .cls-5 {
        stroke: #000;
        stroke-miterlimit: 10;
      }
    </style>
    <clipPath id="clippath">
      <rect class="cls-1" y="211.11" width="1366" height="445.24"/>
    </clipPath>
  </defs>
  <g id="Layer_1-2" data-name="Layer 1">
    <rect class="cls-4" x="2.67" width="1363.33" height="656.35"/>
    <circle class="cls-3" cx="412.67" cy="427.69" r="83.36"/>
    <g class="cls-2">
      <g>
        <path class="cls-12" d="m1439.56,469.67c0,82.51-.02,165.01.08,247.52,0,3.13-.47,4.02-3.89,4.02-509.69-.1-1019.38-.1-1529.07-.1-1.89-1.35-1.54-3.42-1.54-5.27,0-69.92,0-139.84-.02-209.76,0-17.51.09-35.03-.07-52.54-.02-2.8-.45-5.58-.24-8.37.2-1.02.82-1.76,1.83-1.68,1.8.14,3.09-.48,4.49-1.65,1.83-1.53,3.54-.73,4.25,1.76,1.24,4.35,1.16,8.77.68,12.73.25-1.44.99-3.21,1.86-4.95.49-.97,1.14-2.07,2.2-1.9,3.41.54,3.52-1.86,4.15-4.09,1.09-3.85,2-7.74,3.12-11.57.46-1.58.94-3.45,3.13-3.35,1.92.08,2.38,1.71,2.79,3.24.5,1.85,1.09,3.69,1.19,5.33.4-2.47,1.03-5.18,1.97-7.83.41-1.15.94-2.21,2.32-2.27,1.53-.07,2.38.95,2.74,2.28.98,3.59,2.33,7.1,2.39,10.88-.16-3.85.3-7.64,1.16-11.38.31-1.33.78-2.5,2.36-2.66,1.54-.15,2.39.82,2.96,2.05,1.62,3.51,3.17,7.05,4.55,10.67.31.82.55,1.69,1.34,2.36,1.21-1.62,1.19-3.5,1.75-5.17.53-1.61.83-3.47,2.94-3.57,2.27-.11,2.3,2.03,3.02,3.57.45-1.46.72-2.89,1.12-4.28.44-1.54.93-3.11,2.83-3.22,1.98-.11,2.54,1.54,3,3.02,1.34,4.29,2.69,8.58,3.78,12.99,3.54-1.9,4.34-1.67,5.15,1.99.9,4.09,1.39,8.25,1.12,11.7-.12,1.27.48.73-.04.78-.17.02-.24-.09-.2-.33.92-4.72,2.37-9.3,3.73-13.91.46-1.54,1.03-3.03,2.9-3.18,1.87-.16,2.49,1.36,3.22,2.86-.1-6,.84-11.72,1.67-17.45.51-3.51,1.91-4.2,4.93-2.23,2,1.3,2.79.61,3.33-1.23.69-2.35,1.39-4.69,2.34-6.96.53-1.25,1.22-2.3,2.75-2.34,1.77-.05,2.42,1.22,2.96,2.58.62,1.56.88,3.2.98,4.42.2-2.62,1.03-5.54,2.02-8.42.41-1.18,1.06-2.13,2.44-2.09,1.5.04,2.38.96,2.62,2.38.32,1.89.89,3.74.94,5.62.9-2.77,2.17-5.44,3.41-8.12.55-1.19,1.34-2.32,2.89-2.16,1.57.16,1.98,1.44,2.3,2.74,1.34,5.52,2,11.15,2.88,17.27.85-1.68,1.86-2.67,3.5-2.45,1.68.22,2.27,1.52,2.79,2.88,1.38,3.59,2.4,7.31,3.84,11.07,1.49-1.65,1.16-4.33,3.35-5.13,2.58-.94,3.15,1.48,4.39,3.14,1.76-1.12,1.77-3.51,3.38-4.54,2.17-1.39,3.53.24,4.88,1.59,1.8-2,.24-6.02,3.97-6.49,2.36-.3,2.58,2.05,3.42,3.63-.15-2.92.67-5.67,1.02-8.48.25-2.03,1.51-3.45,3.69-3.06,2.11.37,2.35-.9,2.73-2.32.66-2.49,1.06-5.04,1.72-7.54.44-1.65.73-3.42,2.94-3.48,2.04-.06,2.55,1.57,3.12,3.08-.8-4.27,1.56-8.26,1.11-12.5.11-1.8,0-3.98,2.52-3.99,2.42-.01,2.5,2.12,2.79,3.92.37,2.29.85,4.56.47,6.28-.01.13-.14-.38.07-.81,1.02-2.09.31-6.1,4-5.43,3.25.59,2.57,4.05,2.61,6.63,0,.6-.23,1.18-.16,1.72-.07.58-.52-.18-.06.06.09.05.17-.06.18-.34.1-3.41.56-6.77,1.55-10.05.41-1.36,1.1-2.38,2.65-2.31,1.54.07,2.14,1.15,2.47,2.53.95,3.99,1.57,8.02,1.52,11.88.87-1.55-1.79-4.99,1.68-5.36,2.95-.32,2.85,3.1,3.72,5.09.7,1.6,1.25,3.3,1.37,4.8.81-5.55,1.93-11.3,3.53-16.96.52-1.85,1.52-2.93,3.57-2.74,1.33.46,1.74,1.56,1.91,2.8,1.13,1.79,1.85,4.13,4.79,3.43.35-.08.99.11,1.04.38.93,5.41,8.47,4.16,9.52,9.44.04.18.44.21.71.11,4.4-3.92,8.34-7.99,7.95-14.53-.1-1.61.53-3.15,2.54-3.23,2.09-.09,2.46,1.64,2.64,3.1.17,1.42,1,2.64,1,4.07.4-2.15-1.78-5.11,1.95-6.21.55-1.45.97,2.59,1.53.03.28-1.26.18-2.57.49-3.82.61-2.48,2.23-3.35,4.2-1.66,1.37,1.17,2.33,1.45,4.04.9,2.25-.72,3.17,1.06,3.85,2.84,1.5,3.96,2.62,8.06,4.3,12.37,1.07-1.26,1.4-2.6,1.92-3.81.69-1.57,1.33-3.23,3.42-3.11,2.24.12,2.83,1.96,3.36,3.71.26.85.39,1.75.49,2.26.79-2.13-.74-6.21,3-6.63,3.83-.44,3.44,3.79,4.34,6.23.97,2.64,1.72,5.39,2.35,8.47.84-1.45,1.29-3.14,3.17-2.91,2.04.24,2.03,2.02,2.4,3.49.68,2.76,1.06,5.55,1.15,8.39-.16,2.45,1.26,4.79.53,7.31-.13.44.16.99.17,1.5-.02-.34-.11-.68-.11-1.01.03-1.92.05-3.85.55-5.73.82-4.68,1.62-9.35,3.08-13.89.57-1.77,1.07-3.6,3.36-3.62,2.36-.03,2.79,1.96,3.35,3.65,1.02,3.07,1.47,6.26,1.74,9.48.06.04.06.06.05.07-.39-1.53-.48-3.12,1.36-3.6,2.97-.78,3.07,1.98,4.07,3.69,1.56-2.06-.29-6.44,3.82-6.5,2.75-.04,2.03,2.85,2.43,4.05-.09-2.4.62-5.31,1.31-8.22.49-2.05.3-4.87,3.1-5.16,2.83-.3,2.48,2.77,3.52,4.36.75,1.06,1.26,2.23,1.77,3.41.54,1.24,1.1,2.19,2.87,1.6,2.38-.78,3.34.75,3.42,2.84.16,4.27.55,8.56-.5,12.79-.12-.01.06-.12.15-.43.62-2.16.91-4.9,3.91-4.66,3.01.23,2.53,3.02,2.81,5.12.41,3.05.81,6.1,1.67,9.07-.68,1.87-.44,3.52.58,5.33,1.49,2.66,2.75,5.45,4.23,8.28.95-4.46,2.51-8.63,2.87-13.07.33-.7.57-1.45,1-2.08,1.5-2.21,3.1-2.11,4.17.38,1.34,3.11,1.16,6.5,1.46,9.79.25,2.88,1.01,5.74.5,8.18.6-1.98-.11-5.31,3.74-5.89,2.18,1.39,4.58-1.42,6.74.33,1.89,3.19,3.48,6.5,4.16,9.92.13-1.45.63-2.95,2.71-3.2.37-.01.73.06,1.07.2,1.02.54,1.38,1.77,2.44,2.39.71-2.1.96-4.35,2.83-5.82,3.39-1.03,3.08,2.5,4.62,3.74,1.05,2.19.49,6.05,5.27,3.93,1.78-.79,2.28,2.02,2.37,3.56.22,3.86.88,7.67,1.21,11.51.14,1.62.05,4.56,3.19,2.03.61-.49,1.44-.24,2.14.28,2.02,1.48,3.84.83,4.58-1.6.49-1.6.68-3.28,1.44-4.8.48-.95,1.06-1.84,2.28-1.77,1.41.08,1.86,1.1,2.18,2.32.36,1.41-.25,3.97,1.43,3.94,2.06-.04,1.85-2.67,2.24-4.36.06-.25.09-.51.16-.76.94-1.35,2.22-2.51,2.1-4.39-.03-.48-.25-.16.09-.33,3.43-1.74,4.19-5.78,6.91-7.99,1.26-1.03,2.72-1.82,3.77-3.15.8-1.02,1.7-2.05,3.23-1.55,1.51.49,1.89,1.86,1.72,3.12-.41,3.06,4.25,1.89,3.84,4.81,1.36-.9,3.14-1.25,3.87-2.97.68-1.58,1.43-3.23,3.58-2.75,2.04.46,2.09,2.43,2.52,3.99.56,2.03.1,4.1-.03,5.49.39-2.56,1.07-5.4,4.87-6.58,1.82-.57,2.04-3.14,3.09-4.74,1.31-1.98,2.68-3.34,4.77-.82.13.16.12,1.07.45.44,1.72-3.29,5.07,2.47,7.12-1.65,2.84-5.69,8.37-5.69,12.08-.57.19.26-.06.81.36.8,3.5-.03,3.5-.04,3.94,3.38.03.26.03.52.07.77.74,4.27,3.47,5.7,6.71,3.09,2.09-1.69,4.41-3.03,6.44-4.8,2.32-2.02,4.07-1.36,4.4,1.73.31,2.9.4,5.85.45,8.47,1.23-3.19,2.05-3.47,4.23-1.18.24-2.66-.38-6.24,3.39-6.46,3.35-.2,2.23,2.77,2.09,4.62-.02-4.69,4.22-2.35,6.36-3.2,1.71-.68,1.24,2.16,1.64,3.49.15.5.36.96.7,1.35.85.58,2.27,1.08,2.33,1.88.35,4.76,4.19,6.97,6.9,10.03,1.98,2.24,1.58,4.98,1.07,7.66-.3.9-1.26,1.31-1.6,2.15-.38.93-.14,2.28.76,2.23,3.65-.22,6.46,2.17,9.79,2.78,1.62.3,2.17-1.18,2.63-2.36,1.02-2.59,1.39-5.73,5.66-4.2,1.22.44,1.59-1.3,2-2.4,1.83-4.78,4.29-5.28,8.4-1.79.99.84,1.8,1.36,3.42,1.28,3.03-.15,5.3,2.02,7.4,4.08.46.45.98.84,1.4,1.33.82,2.11,1.43,4.15,3.42,5.78,2,1.64,1.09,4.56,1.4,6.46.08-2.93.6-5.96,4.52-7.36,1.78-.63,1.47-3.15,2.4-4.67,2.92-3.39,2.85-3.32,5.96-.18,1.09,1.1,2.85,1.44,4.23,2.12,1.48.73,2.05-1.74,2.88-2.91.98-1.38,1.85-2.96,3.88-2.51,1.93.42,2.04,2.04,1.99,3.68.7-.31,1.04-1.2,1.84-1.22,2.08-.04,3.83,2.16,6.4.25,1.05-.78,1.2,2.38,2.21,3.46.63.74.56,1.65.62,2.54q.3,4.43,3.59,7.8c.34-3.38.94-6.38,5.27-6.27,1.46.04,1.83-1.56,2.22-2.78.15-.49.22-1.06.59-1.4,1.28-1.16,2.35-3.11,4.33-2.57,2.24.61,1.68,2.87,1.8,4.58.13,1.85-.26,3.67-.59,5.75-.02-.7.15-1.33.31-1.49,2.66-2.61,4.05-5.88,5.56-9.21.91-2.01,3.76-2.6,5.9-3.06,2.18-.47,3.14,1.21,2.98,3.38.02.52.07,1.05.2,1.56,1.68,2.83,2.03,2.86,3.67.32.2-.33.47-.59.79-.8.35-.16.72-.23,1.1-.23,3.55,3.64,6.46,7.64,6.9,12.67,4.85.16,6.34-2.39,5.98-6.65-.11-1.37.69-2.51,2.2-2.73,1.52-.23,2.36.67,2.95,1.96.8,1.75,1.38,3.6,2.25,5.41.94-1,.75-2.41,1.44-3.42.92-1.37,2.83-2.15,3.48-.81,1.91,3.91,3.94.75,5.15,0,1.82-1.12,2.96-1.41,4.79-.18,1.06.71,2.83,1.86,3.84-.44.65-1.48.78-3.61,2.92-3.57,2.15.03,1.67,2.62,2.9,3.67.82,2.57.39,5.98,4.34,6.46,4,2.04,7.92,3.22,12.61,1.78,3.05-.94,6.48.9,8.86,2.53,3.14,2.15,6.33,2.9,9.77,2.88,15.31-.09,30.61,0,45.92-.03,15.43-.02,30.87.03,46.3.03,15.43,0,30.87-.02,46.3-.03,13.38-.01,26.75.02,40.13.02,13.38,0,26.76-.01,40.13-.02,13.38,0,26.75,0,40.13.01,13.38,0,26.76,0,40.13,0,13.38,0,26.75-.01,40.13,0,2.96,0,5.92,0,8.88.08,1.7.04,3.18.22,3.73,2,.59,1.88-.85,2.83-2.19,3.53-7.52,3.93-15.69,6.34-23.94,4.57-8.43-1.81-15.48.28-22.94,3.59-15.19,6.74-30.39,13.56-46.33,18.36-7.95,2.4-16.24,3.64-24.48,4.88-8.98,1.35-17.3,5-25.9,7.69-11.46,3.57-23.03,6.67-35.16,6.85-1.68.02-3.32.48-4.96.8-.77.15-1.61.45-1.69,1.35-.1,1.12.85,1.48,1.72,1.77.61.21,1.26.27,1.91.27,14.92-.08,29.84-.03,44.77-.04,13.38,0,26.75,0,40.13.01,13.38,0,26.76,0,40.13,0,13.38,0,26.75,0,40.13,0,13.51,0,27.01,0,40.52,0,13.38,0,26.75.01,40.13.02,13.38,0,26.76.01,40.14,0,13.25-.02,26.5.16,39.75-.07,12.2-.22,24.4.75,36.62-.78,4.5-.57,9.2-.49,13.81-.55,3.57-.05,7.55-.16,9.77-4.09.69-1.22,1.86-2.17,3.43-2.26,4.17-.25,7.98-1.69,11.7-3.45,1.1-.52,2.35-.7,3.35-.07,2.33,1.47,4.35.69,6.85.18,5.15-1.06,9.87-3.8,15.56-3.26,2.62.25,5.29-.04,8.07.56,2.88.62,5.99.03,6.82-3.91.42-1.97,1.76-3.23,3.91-2.7,1.95.48,2.84-.64,3.43-2.03.84-1.95,2.02-2.93,4.12-1.99,2.08.93,3.17-.65,3.84-1.86,1.45-2.61,2.87-3.69,5.59-1.55,1.31,1.03,2.63.32,3.63-.85,1.82-2.12,3.61-1.57,5.01.32,1.2,1.62,2.23,2.2,3.87.7.36-.33-.1-.26.31-.17,3.61.81,6.23-.32,8.55-3.28.91-1.16,2.58.29,3.62,1.27,2,1.89,3.33,1.18,4.48-.98,1.05-1.96,3.01-3.67-.39-5.52-4.93-2.68-10.15-4.72-15.05-7.52-6.5-3.72-12.93-7.57-19.53-11.13-8.49-4.58-17-9.15-24.99-14.6-1.91-1.3-3.78-2.67-5.6-4.08-2.36-1.83-1.93-3.68.9-4.76.85-.33,1.72-.55,2.64-.54,15.05.19,30.1.06,45.15.08,13.38.02,26.76,0,40.14-.02,13.25-.02,26.5-.02,39.75,0,11.06.02,22.14.28,33.18-.12,4.88-.18,10.03-1.06,14.1-4.49.96-.81,2.19-1.12,3.28-.72,5.22,1.94,9.91-.66,13.99-2.71,4.47-2.26,9.36-2.48,13.73-4.57,1-.48,2.23-.52,3.26-1.11,4.54-2.57,5.24-2.46,8.8,1.38Z"/>
        <path class="cls-12" d="m1439.56,469.67c-3.08-.91-5.62-1.3-8.79,1.1-1.99,1.51-5.65,1.85-8.58,2.52-2.65.61-5.43.33-6.68,3.46-.11.29-.7.66-.92.59-4.24-1.47-7.22,2.73-11.2,2.47-.76-.05-1.56.21-2.2-.3-2.18-1.74-3.84-.89-5.2,1.05-1.01,1.44-2.29,1.57-3.95,1.74-4.94.51-9.68,2.07-14.8,1.88-9.21-.35-18.44-.07-27.67-.08-9.22-.01-18.44-.06-27.67-.07-9.48-.01-18.96,0-28.43.01-9.22.01-18.44.03-27.67.04-9.22.01-18.45.03-27.67,0-4.87-.01-9.73-.15-14.6-.12-.94,0-2.3-.05-2.58,1.2-.22.99.85,1.49,1.56,2.01,8.12,5.97,17.02,10.68,25.75,15.65,13.2,7.52,26.29,15.26,40.22,21.44,3.01,1.34,3.2,4.01.65,6.05-.8.64-1.92,1.07-2.38,1.89-1.58,2.86-3.25,2.42-5.14.43-1.82-1.92-3.43-1.97-5.03.33-1.08,1.56-2.43,2.72-4.57,1.73-1.37-.64-2.13.11-2.76,1.27-1.58,2.9-2.93,2-3.85-.42-1.21-3.19-2.76-4.26-5.49-1.41-.62.65-1.75,1.22-2.47.69-3.11-2.29-4.23.37-6.51,1.7-3.25,1.89-6.67,3.7-10.03,5.35-2.12,1.04-3.24,1.75-3.77,3.85-.65,2.6-.71,5.28-5.14,3.87-2.1-.67-5.02,1.35-6.94-1.61-.32-.49-1.16.17-1.69.54-.63.43-1.56,1.31-1.92,1.13-5.29-2.68-9.99,1.17-14.47,2.28-3.88.96-6.59,2.13-9.8-.58-2.29,2.57-6.14,1.24-8.57,3.44-.68.61-1.48,1.56-2.3,1.14-3.98-2.02-4.91.84-6.06,3.54-.41.96-1.08,2.13-2.21,1.81-2.31-.65-4.97,1.27-6,.84-3.63-1.51-6.9,1.14-10.28-.04-4.26-1.48-8.3.95-12.56.86-11.9-.25-23.82-.08-35.73-.05-11.27.03-22.54.15-33.82.16-9.22.01-18.45-.09-27.67-.11-9.1-.02-18.19,0-27.29,0-9.48,0-18.96,0-28.43,0-9.1,0-18.19,0-27.29,0-9.48,0-18.96,0-28.43,0-9.1,0-18.19,0-27.29,0-9.48,0-18.96-.02-28.43,0-9.22.01-18.44.06-27.67.07-9.22.01-18.45,0-27.67,0-9.35,0-18.7.08-28.05-.03-3.7-.04-7.42.45-11.12-.38-2.39-.54-3.69-1.88-3.63-4.26.08-2.75,2.26-2.69,4.22-2.8,17.37-.93,34.15-4.5,50.37-10.85,9.67-3.78,19.96-5.24,30.14-6.7,12.15-1.74,23.45-5.96,34.64-10.57,10.48-4.32,20.77-9.07,31.19-13.53,3.69-1.58,7.7-1.37,11.43-.47,8.27,2,16.09.72,23.8-2.26,1.08-.41,2.11-.96,3.1-1.56.64-.38,1.43-.89,1.01-1.82-.31-.69-1.07-.48-1.71-.48-12.68.04-25.36.11-38.04.09-11.27-.02-22.54-.19-33.82-.2-11.27,0-22.54.13-33.82.15-9.22.01-18.45-.08-27.67-.1-9.1-.02-18.19-.01-27.29-.01-9.48,0-18.96,0-28.43,0-9.1,0-18.19,0-27.29,0-9.48,0-18.96,0-28.43,0-9.1,0-18.19,0-27.29,0-9.48,0-18.96,0-28.43,0-9.19,0-18.38.04-27.57.04-8.96,0-17.93-.03-26.89-.05-.25,0-.66,0-.74-.14-1.96-3.83-6.81-2.34-9.34-5.09-.49-.53-1.1-.71-1.74-.36-5.22,2.84-9.32-.14-13.53-2.57-.25-.45-.2-.87.15-1.25,2.93-1.14,6.23-.86,9-1.53,7.81-1.88,15.06,1.04,22.61,1.02,119.51-.23,239.01-.16,358.52-.16,2.58,0,5.16-.11,7.73.22,1.37.18,2.49.71,2.87,2.18.38,1.44-.25,2.51-1.39,3.33-13.92,9.99-28.15,18.9-46.58,15.36-4.68-.9-9.05.53-13.47,2.39-16.81,7.07-33.51,14.45-50.94,19.91,3.12-1.06,6.38-.83,9.62-.83,110.35,0,220.71-.04,331.06.08,7.04,0,12.74-2.61,18.85-5.56,4.52-2.18,8.85-5.24,14.52-5.45,3.78-.14,7.35-.8,11.2.21,4.09,1.07,7.53-1.52,11.23-3.62-12.18-4.98-22.49-12.78-33.34-19.59-9.01-5.65-18.14-11.08-27.28-16.49-1.66-.98-3.29-2.04-4.42-3.68-.81-1.42-.4-2.7.47-3.93,1.86-2.61,3.86-5.12,5.97-7.53,1.69-1.93,3.62-2.89,6.01-.99,1.71,1.36,2.81.39,3.72-1.1.81-1.31,1.51-2.67,2.34-3.98,1.05-1.67,2.4-2.67,4.39-2.55,3.74.23,6.85-.7,8.66-4.32.15-.3.66-.35,1.05-.41,1.95-.43,3.97-.15,5.93-.56.45-.1.88-.22,1.3-.39,1.24-1.53,2.88-2.07,4.77-2.09,1.29-.01,2.58-.06,3.87-.06,55.96-.01,111.92-.02,167.88.03,3.1,0,6.61-.85,8.7,2.66v9.28Z"/>
        <path class="cls-14" d="m1439.56,460.38c-2.63-.81-5.33-.78-8.04-.78-55.92,0-111.84.03-167.76-.04-3.81,0-7.42.21-10.69,2.36-2.05-2.73-.61-5.5,0-8.21.27-1.19,1.18-2.22,1.14-3.54.82-2.05,2.38-2.93,4.25-1.72,2.41,1.55,3.77.67,5.03-1.37,1.61-2.61,3.33-4.45,6.87-2.5,1.84,1.01,2.43-1.3,3.25-2.49.99-1.44,1.49-3.52,3.82-3.22,2.35.3,2.2,2.53,2.94,4.2.96-1.16,1.48-2.62,2.45-3.71,2.82-3.17,7.9-1.7,10.72-5.08.25-.3,1.18.81,1.92,1.08,1.63.59,2.45-.04,2.63-1.68.11-1.32.72-2.46,1.32-3.58.83-1.54,1.34-3.56,3.55-3.62,2.32-.06,2.58,2.13,3.48,3.59.65-.2.52-.8.7-1.22.68-1.58.67-3.76,3.04-3.94,2.1-.16,2.66,1.66,3.54,3.05.46.72.76,1.82,1.9,1.57.83-.18,1.07-1.07,1.21-1.82.52-2.88,1.83-5.6,1.74-8.6.62-2.2.82-4.38-.09-6.56,0-1.55.26-3.05.79-4.53.65-1.84,1.77-3.09,3.72-2.04,2.09,1.12,2.78,0,3.45-1.56.67-1.53,1.1-3.16,1.82-4.67.54-1.11,1.33-1.9,2.68-1.83,1.19.07,1.84.88,2.23,1.87.74,1.92,1.06,4.07,4.06,2.04,1.45-.98,2.67.77,3.63,2.14.94-2.46,1.52-4.71,2.38-6.86.63-1.58,1.24-3.38,3.43-2.88,1.94.44,1.78,2.26,1.88,3.79.06.9-.26,1.77-.19,2.67-.03-.38.01-.76.12-1.12.59-1.95.88-4.39,3.58-4.32,2.85.07,3.02,2.5,3.2,4.62.2,2.24,1.58,3.28,3.58,3.79,2.26.77,4.59.62,6.89.62,22.23.02,44.47-.02,66.7.04,2.5,0,5.23-.5,7.15,1.89v54.16Z"/>
        <path class="cls-14" d="m1439.56,406.23c-25.87,0-51.74,0-77.61-.01-2.04,0-4.15.33-6.01-.9-1.44-7.38-.23-14.7.56-22.02.17-1.6.5-3.17,2.51-3.3,1.78-.12,2.31,1.25,2.83,2.63,1.61,4.18,1.41,8.85,3.63,13.19,5.48-6.34,4.97-14.17,6.28-21.44.06-.89.16-1.78.3-2.66.22-1.38.84-2.43,2.36-2.62,1.33-.16,2.08.62,2.77,1.65.69,1.01.9,2.28,1.79,3.08,1.03-1.91-.09-5.22,3.09-5.5,4.05-.36,8.33-1.61,11.98,1.5.14-.02.29-.03.43,0,1.33-1.07,2.64-1.32,3.93.07.16,1.03.56,1.92,1.76,2.83.93-2.77,1.8-5.34,2.83-8.38,1.12,1.56,1.6,2.88,1.85,4.35.21,1.22.88.98,1.59.38,3.07-3.36,5.36-3.34,9.06.05.06.77.12,1.54.17,2.31,1.2.94,2.41,1.91,3.62,0,.2-.29.39-.58.59-.87,4.21-2.66,16.13-2.59,19.66.11v35.59Z"/>
        <path class="cls-13" d="m414.29,462.7v-4.25c-1.93,1.44-1.33,3.79-3.02,4.78-1.55-.9-.29-2.74-1.4-3.91-1.92.74-1.13,3.25-2.78,4.33-1.3-1.85.2-4.31-1.35-6.34-2.55,2.12-2.01,5.58-3.85,7.86-1.38-.42-.3-1.9-1.36-2.7-1.72,1.2-1.71,3.79-3.62,5.28-1.03-4.65-1.24-9.09-1.33-14.84-3.58,6.34-10.32,6.92-13.85,12.01-1.32-4.75-5.58-8.12-3.76-13.39-2.37.2-1.93,2.48-3.43,2.89-.85-1.12.45-2.23-.03-3.38-1.21-.72-1.11,1.3-2.84.62-.58-.41.53-2-.51-3.27-1.23.44-2.45,2.88-4.24.58-.3-.39-1.1.84-1.44,1.5-.95,1.83-1.84,3.7-2.8,5.52-.4.75-.62,1.95-1.71,1.82-1.11-.13-.93-1.39-1.25-2.18-.37-.92-.29-2.05-1.23-2.72-1.94.58-1.61,2.93-3.19,3.78-1.3-1.19,0-3.03-1.25-4.51-2.21,1.73-2.48,4.64-4.09,6.62-.51.63-.08,4.55-2.89,1.36-.75-.85-1.19.93-1.44,1.64-.97,2.76-1.82,5.56-3.14,8.34-1.8-4.51.1-9.56-2.16-14.27-1.58,1.24-1.48,3.31-2.64,4.27-.7.58.24,5.18-2.8,1.51-.37-.44-.8.32-1.05.74-.56.93-.51,2.28-1.88,2.77-1.04-1.79.09-3.85-.83-5.67-1.47.27-.89,2.09-2.23,2.64-1.4-2.47-1.11-5.32-1.43-8.47-2,1.13-2.46,3-3.61,4.25-.71.77-.5,3.32-2.86,1.46-.78-.62-.92.87-1.04,1.53-.39,2.27-.71,4.55-1.09,6.98-2.01-.44-1.22-2.67-2.96-3.39-.74,1.98-1.48,3.96-2.22,5.94-.99.59-1.87.22-2.28-.64-1.81-3.86-5.06-3.44-8.23-2.7-2.79.64-5,.45-6.61-2.25-.76-1.27-2.25-1.55-3.6-2.03-2.62-.93-3.5-2.51-1.39-4.86,4.64-3.85,10.37-5.66,15.74-8.04,10.48-4.65,20.36-10.44,30.6-15.52,1.72-.85,3.24-1.61,4.96-.2,1.99,1.09,4.07.26,6.08.26,88.67.04,177.35-.02,266.02.08,1.43,0,2.85.21,3.89-1.08,1.49-1.47,3.06-.82,4.65-.17,3.58,1.47,7.15,2.93,10.88,4,6.02,1.72,12.06,1.08,18.02.02,5.33-.95,10.32-.34,14.99,2.17,8.3,4.47,17.04,7.95,25.61,11.83,1.73.78,3.33,1.58,2.84,3.94-.7,1.95-2.37,2.16-4.08,2.29-2.57.19-5.15.13-7.73.13-84.81,0-169.62,0-254.43,0-4.8,0-9.68-.44-12.6,4.7-.53.93-1.71,1.09-2.74.35Z"/>
        <path class="cls-11" d="m-94.09,444.1c-.75-2.3-1.5-4.59-2.25-6.89-.87-1.11-.31-2.41-.47-3.61,0-30.44,0-60.87.02-91.31,0-1.39-.33-2.83.34-4.17l.14.19c2.81.34,2.44,2.63,2.48,4.4.17,7.98.21,15.96-.04,23.94.2,6.23.22,12.46,0,18.69.15,2.83,0,5.68.24,8.5.31,3.81,1.79,5.28,5.52,5.7,1.41.16,2.83.11,4.25.11,51.57,0,103.14-.02,154.71.06,3.28,0,6.65-1.25,9.89.32-.6,5.48-1.2,10.95-1.85,16.87-2.26-1.67-1.94-4.78-4.67-6.23-.94,4.26-1.82,8.22-2.68,12.2-.19.88-.26,1.79-.48,2.66-.18.72-.16,1.7-.99,1.95-.94.28-1.22-.69-1.7-1.26-.6-.71-.68-2.31-2.07-1.74-1.05.43-.84,1.77-.99,2.77-.63,4.15-1.26,8.31-2.02,13.33-1.9-3.17-1.85-6.37-4.13-8.78-1.9,3.73-1.24,7.83-3,11.6-2.02-1.19-1.9-3.35-2.71-4.93-.35-.67-.5-1.63-1.35-1.74-1.19-.16-1.36,1.01-1.71,1.77-1.07,2.32-1.73,4.85-3.67,7.1-2.16-2.03-1.34-5.22-3.5-7.83-1.21,3.3-2.27,6.2-3.52,9.61-2.03-2.36-2.29-4.83-3.1-7.02-1.03-2.78-1.89-5.62-2.86-8.42-.29-.83-.38-2-1.38-2.16-1.12-.19-1.28,1.05-1.76,1.77-.62.94-.79,2.19-2.58,3.24-1.31-7.71-2.58-15.15-3.98-23.39-3.14,4.76-3.97,9.72-7.14,14.28-.89-4.19-1.64-7.74-2.39-11.28-.27-.01-.54-.03-.8-.04-1.17,4.34-2.35,8.69-3.65,13.51-2.45-3.28-2.11-7.1-4.34-10.27-1.66,2.17-1.95,4.5-2.7,6.61-.47,1.33-.69,2.76-1.2,4.08-.54,1.39-.39,3.6-2.02,3.89-1.73.31-2.04-1.99-3.05-3.07-.58-.62-.8-1.68-2.39-1.55-.88,7.79-1.78,15.65-2.73,24.04-2.14-1.93-1.98-4.77-4.48-6.73-2.11,7.21-4.12,14.11-6.13,21.01-.24-.02-.48-.04-.73-.06-.8-6.19-1.61-12.37-2.41-18.56-.23-.05-.46-.09-.68-.14-.66,1.69-1.31,3.39-1.97,5.08-.27.06-.53.13-.8.19-2.33-6.6-3.32-13.68-6.49-21.09-1.34,4.78-2.43,8.65-3.7,13.16-2.16-2.85-1.5-5.84-3.15-8.48-2.23,4.06-2.02,8.73-4.4,13.28-3.68-6.62-5.24-13.56-9.54-19.41-.81,5.52-1.63,11.05-2.44,16.57-.27.03-.54.06-.81.1-1.5-5.21-3-10.42-4.71-16.36-2.48,4.91-2.46,9.88-4.87,14.4-1.14-4.08-2.28-8.16-3.42-12.24-.3-.04-.6-.07-.9-.11-2.05,7.42-4.11,14.84-6.15,22.24-.61-.14-.9-.12-1.05-.26-.9-.84-.56-2.97-2.15-2.83-1.41.12-1.48,1.94-1.94,3.07-.92,2.25-1.66,4.58-2.93,6.89-2.44-5.83-.16-12.34-2.64-18.34-1.48.36-1.89,1.83-2.66,2.87-2.12,2.86-2.22,2.86-3.78-.39-.22-.46-.5-.9-.76-1.34Z"/>
        <path class="cls-13" d="m414.29,462.7c1.62-.77,1.99-2.31,2.24-3.84.35-2.17,1.63-3.09,3.74-3.09,1.55,0,3.09-.03,4.64-.03,87.81,0,175.61,0,263.42-.03,2.36,0,4.99.72,6.85-1.6.93-1.9,2.43-1.27,3.97-1.01,5.75.98,10.57,4.25,15.86,6.34,2.03,3.43,1.4,6.85-1.67,8.95-.42.29-.94.41-1.34.75-3.74,3.11-3.83,3.1-6.24-1.25-.13-.24-.29-.42.1-.32-6.18,3.51-7.49,9.27-8.24,15.31-1.9,3.39-2.38,3.48-5.11,1.09-.48-.26-.49.28-.7.5-1.01,3.3-4.09,2.41-6.34,3.2-.98.35-2.03-.13-2.97.29-1.18.53-1.12,2.95-3.05,2.22-1.79-.67-2.04-2.78-3.24-4.04-.35-.36-.57-.84-.72-1.33-.09-1.5.14-3.09-.75-3.76-.7-.7-.88-.65-1.08-.39-3.64,4.66-3.74,4.73-7.1-.07-1.55-2.21-2.62-3.89-6.03-2.86-2.53.77-2.22-1.97-2.09-4.16-.74,5.24-1.45,5.54-5.2,2.63-.19-.15-.3-.41-.55-.48-5.92-1.49-7.01-2.93-6.8-9.03.02-.52-.05.13-.04-.34.11.42.13.81.05,1.19-.28,3.43-1.44,6.65-2.49,9.88-.55,1.68-.97,3.57-3.23,3.89-2.1.3-2.86-1.38-4.13-2.91-1.18,2.21-2,4.44-5.44,2.84-1.98-.92-1.49,2.84-3.16,3.6-.34.15-.7.19-1.07.15-1.58-1.87-3.18-3.63-5.35-.63-.37.06-.73.02-1.09-.09-1.23-1.12-2.22-2.5-2.45-4.08-.35-2.44-1.86-3.26-3.96-3.63-2.35-1.64-5.02-1.88-7.76-1.88-45.59-.01-91.17-.01-136.76,0-2.2,0-4.38.16-6.49.74-1.64.22-3.28.36-4.02,2.31-.34.88-1.32,1.14-2.29,1.08-1.57-.09-1.93-1.48-2.66-2.47-1.39,1.36-2.6.79-3.54-.5-1.22-1.68-1.84-.74-2.6.4-.71,1.08-.93,2.32-1.37,3.49-.63,1.7-1.35,3.01-3.61,2.24-2.44-.83-2.66,1.44-3.31,2.8-1.94,4.03-6,4.94-9.14,1.83-.69-.68-1.18-1.14-2.19-1.03-3.81.4-3.44-1.84-2.65-4.31.05-2.43.12-4.84-1.51-6.93-.94-1.21-1.78-2.23-3.4-.93-1.54,1.24-2.01.32-2.02-1.14-.01-2.43-.24-4.81-.93-7.32-3.75,2.71-2.88-.35-2.96-2.26Z"/>
        <path class="cls-11" d="m80.74,400.04c-2.06,1.22-4.3,1.56-6.68,1.56-54.87-.02-109.74-.01-164.61-.02-4.76,0-5.06-.33-5.1-5.04-.03-3.73,0-7.47,0-11.2,1.03-1.35,2.47-1.75,4.08-1.83,2.19-.1,4.38-.09,6.57-.09,46,0,92-.02,138.01.02,3.92,0,7.93-.61,11.71,1.1.64.29,1.37.19,1.84-.09,2.37-1.4,4.35-.65,6.26.9,2.51.37,2.6-2.04,3.56-3.29,1.33-1.73,2.18-2.01,3.22.1.4.8.96,1.53,1.33,2.34,1.08,2.38,2.34,3.54,4.87,1.44,2.28-1.89,2.88.47,3.44,1.84,1.36,3.33,2.87,5.03,6.2,1.83,1.98-1.9,2.87-.33,3.31,1.56.73,3.14,1.89,3.78,3.81.73,1.59-2.53,2.77-2.2,3.63.53.34,1.08,1.07,2.1,2.21,1.09,3.08-2.73,3.66.12,4.74,1.96-2.2,2.46-2.22,5.69-2.9,8.64-1.18,5.11-2.12,10.28-4.03,15.56-1.49-4.5-2.98-9-4.48-13.5-.2.01-.4.02-.59.03-.44,2.8-.88,5.61-1.32,8.41-.15.02-.31.04-.46.06-1.14-5.81-2.28-11.62-3.42-17.43-.3,0-.59,0-.89,0-1.11,4.79-2.23,9.58-3.34,14.37-.24.02-.48.04-.72.06-.68-3.49-1.36-6.98-2.22-11.42-2.43,4.22-2.55,8.15-4.48,12.6-.9-5.88-1.63-10.63-2.39-15.61-1.49.77-.97,1.91-1.16,2.79Z"/>
        <path class="cls-13" d="m460.71,474.31c1.73-1.33,3.73-1.56,5.84-1.56,47.64.02,95.27.03,142.91-.02,2.66,0,4.86.42,6,3.12,2.18,1.17,1.36,3.02.87,4.61-.44,1.41-1.12,2.73-.96,4.27-2.1,3.45-2.74,3.57-5.53,1.04-.44-.63.14-1.82-.92-2.03-.36-.07-.35.76-.4,1.22,0,1.88-1.33,3.59-.63,5.54.19,1.19-.29,2.26-.71,3.3-1.14,2.88-3.4,3.24-5.52.98-1.71-1.82-2.13-4.67-4.67-5.82-1.66-2.33-4.04-3.13-6.72-2.75-7.67,1.09-15.37.25-23.05.52-6.02.22-12.06-.42-18.06.38-1.24.17-2.15-.9-3.33-.45-.25,0-.5,0-.76.01-2.59,1.57-4.29-.41-6.2-1.56-.2-.73-.25-1.67-1.04-1.93-1.05-.35-1.12.72-1.47,1.35-.41.74-.68,2.41-1.43,1.93-3.78-2.46-2.49,1.26-3.25,2.47-1.23,1.96.55,6.15-4.31,5.65-.43-.04-1.22,3.33-1.97,5.48-2.04-4.53-.77-9.17-1.56-14.2-1.21,1.7-1.99,2.81-2.78,3.92-2.21-1.77-4-4.25-7.49-3.54-1.66.34-3.3.48-4.57,1.73-1.08,1.07-2.2,1.19-3.41.24-.15-.83.31-1.8-.61-2.54-1.91,1.22-1.32,4.11-3.37,5.33-1.34-1.65-.15-4.02-2-5.45-1.83,1.46-1.86,4.2-3.99,5.77-1.94-2.66-.07-5.49-.52-8.58-3.55,2.78-4.29,7.2-7.33,9.9-1.69-1.6-1.06-3.79-1.93-5.47-1.62-.25-.94,2.11-2.4,2.03-1.49-1.41-.61-3.66-1.51-5.27-1.33.21-1.41,1.25-1.9,1.95-4.77-.46-9.69.41-14.27-1.61-1.11-.93-1.44-2.39-3.48-2.72-3.33-.54-3.98-4.43-1.58-7.27Z"/>
        <path class="cls-13" d="m545.82,486.69c3.85-2.91,8.41-2.06,12.68-2.1,11.39-.11,22.79.31,34.18.14,3-.05,4.24,1.05,4.98,3.52,1.2,1.43,2.14,2.91.69,4.72-1,.87-2.45,1.03-2.99,0-1.48-2.82-3.19-1.85-5.11-.77-.28.16-.74-.05-1.11-.09-.37-.8-.74-1.59-1.25-2.67-1.7,2.77-1.2,6.19-3.26,8.68-1.41-.63-1.04-4.96-4-1.78-.29.31-.91-2.38-1.94-3.59-.83,1.62.22,5.86-3.81,2.73-.8-.62-1.04.75-1.17,1.46-.22,1.23.02,2.62-1.5,3.59-1.78-2.06-1.18-4.83-2.32-8.09-1.18,3.36-2.08,5.92-3.17,9.03-2.65-3.55-3.08-7.52-5.33-11.1-1.48,3.06-.57,5.89-.89,8.58-.14,1.23-.4,3.45-1.92,2.3-4.09-3.07-4.51.2-5.61,3.32-1.59-2.36-1.43-4.72-2.25-6.72-.72-1.78.63-5.09-3.38-4.64-.64.07-.67-1.26-.71-2.02-.09-1.54.05-3.11-.81-4.5Z"/>
        <path class="cls-13" d="m281.25,456.32c.71-.73,1.42-1.47,2.14-2.19.9-.91,1.65-.74,1.88.48.81,4.34,3.06,2.35,5.04,1.11,1.53.73.5,2.57,1.67,3.31.1.48.12,1.33.33,1.38,2.98.7,5.84,1.45,7.27,4.66.3.67,1.54.71,2.1.21,2.2-1.96,5.25.24,7.56-1.75.91-.78,1.61.76,2.04,1.68.81,1.74,1.6,3.48,2.4,5.22-.39,3.49-2.39,6.18-4.39,8.87-.38.52-.79,1.13-1.52.95-.72-.17-.86-.89-.95-1.53-.38-2.75-.74-5.5-1.68-8.33-1.04,3.74-2.07,7.47-3.1,11.2-1.64-.43-1.15-1.99-2.18-2.52-1.63-.13-1.31,2.09-2.67,2.34-1.14-.88.12-2.54-1.12-3.44-1.76,1.11-1.87,4.85-3.74,4.27-2.17-.66-1.78-3.96-2.1-6.15-.71-4.94-1.1-9.93-1.63-14.93-.18,0-.48-.1-.62.01-1.26,1.02-1.45,3.7-3.23,3.39-1.66-.28-1.5-2.75-2.14-4.25-.55-1.29-.9-2.67-1.34-4.01Z"/>
        <path class="cls-12" d="m460.71,474.31c.23,1.64.42,3.29.72,4.91.14.78.72,1.7,1.55,1.22,5.32-3.12,2.3,1.91,3.13,3.15.1.69-.07,1.25-.77,1.55-3.77-4.11-9.84-3.64-14.02-7.04-1.61-1.31-3.36-1.08-4.1,1.43-.77,2.64-1.9,4.8-5.41,3.94-1.18-.29-1.53,1.11-1.97,2.03q-3.01,6.22-9.21,3.44c-.92-.41-1.53-1.55-2.7-1.29-1.55.34-3.21.89-3.96-1.08-.72-1.9-.59-3.81,1.13-5.28q1.2,3.41,3.92.32c1.13.27,1.01,1.34,1.35,2.12.38.89.12,2.45,1.36,2.4.7-.02,1.35-1.33,2.05-2.09,1.08-.09,1.06.88,1.34,1.53.79,1.77,1.66,1.3,2.43.05.73-1.2,1.21-2.57,2-3.73.86-1.26.89-4.41,3.85-1.69.99.91,1.48-.92,1.84-1.76,1.28-3.01,1.73-6.36,3.62-9.44,1.84,1.96,1.14,4.71,2.77,6.48,1.96-.94,1.27-3.35,2.94-4.64,1.56,1.82-.11,4.52,1.35,6.12,2.55.47,1.3-5.03,4.79-2.65Z"/>
        <path class="cls-13" d="m505.6,488.23c2.62-3.88,6.47-4.12,10.67-3.92,5.27.26,5.5.34,4.8,5.47-.58,1.42-1.11,2.86-1.77,4.24-.66,1.4-1.36,2.69-2.88.57-1.18-1.66-1.9-.69-2.24.69-.67,2.7-1.27,5.41-1.95,8.35-3.8-4.77-6.6-9.51-6.63-15.41Z"/>
        <path class="cls-18" d="m114.1,398.39c.96.73,1.95-.5,2.25-.38,2.69,1.06,5.3,2.06,8.11.41.28.57.69,1.11.82,1.72.65,3.16,2.66.31,3.72.9,1.3.73-.15,3.23,1.88,3.76.86.23,1.45-1.1,2.5-.71.99,3.23-1.83,6.45-.04,9.67-.58,1.05-.17,3.06-1.73,3.03-1.32-.03-1.45-1.9-2-3.02-.94-1.9-1.25-4.13-2.74-5.81-1.62.72-.83,2.53-2.18,3.51-2.42-2.46-2.65-6.16-4.69-8.85-1.86.42-.79,2.69-2.42,3.37-1.56-2.38-2.49-5-3.47-7.59Z"/>
        <path class="cls-13" d="m465.34,485.14c.26-.52.51-1.03.77-1.55,2.89,0,5.78.07,8.67-.01,2.17-.06,3.95.54,5.26,2.33-.98,2.22-1.87,4.49-2.97,6.65-.98,1.92-1.09,1.87-3.1.34-.93,3.19-1.85,6.35-2.77,9.52-.27,0-.53,0-.8,0-.38-2.63-.66-5.28-1.19-7.88-.26-1.28.76-4.53-2.76-2.22-.99.65-1.03-.77-1.06-1.42-.08-1.92-.05-3.84-.06-5.76Z"/>
        <path class="cls-8" d="m589.15,492.11c.43-.77,1-1.49,1.28-2.3.69-1.99,2.16-2.84,4.08-2.57,2.34.33,1.83,2.25,1.84,3.87,0,.59.35,1.18.54,1.77,2.32,2.9,2.09,3.45-2.31,5.42,0,.26,0,.52-.01.77-.88.61-.99,2.35-2.42,2.04-1.25-.28-1.48-1.65-1.74-2.72-.5-2.07-.85-4.18-1.26-6.28Z"/>
        <path class="cls-8" d="m545.05,487.46c-.55,1.79-.76,3.72-2.31,5.55-1.01-2.44-4.97-2.65-3.86-6.32,2.3-1.69,4.21-.22,6.18.77Z"/>
        <path class="cls-12" d="m753.61,562.44c3.27-2.08,6.15-1.41,8.78-1.92.53-.1,1,.44.89.98-.09.43-.52,1.15-.79,1.14-2.66-.04-5.38.75-8.88-.2Z"/>
        <path class="cls-8" d="m545.05,487.46c-2.06-.26-4.12-.51-6.18-.77,0-.52,0-1.03,0-1.55,2.37-.68,4.29.4,6.2,1.56,0,.25-.01.51-.02.76Z"/>
        <path class="cls-12" d="m782.81,558c-.14.82-.55,1.43-1.43,1.44-.6,0-.84-.51-.8-1.05.06-.82.44-1.48,1.37-1.43.56.03.84.47.87,1.05Z"/>
        <path class="cls-12" d="m750.53,563.06c-.67-.06-1.33-.23-1.24-1.08.06-.59.61-.81,1.15-.79.68.02,1.33.23,1.25,1.07-.06.59-.6.77-1.16.8Z"/>
        <path class="cls-11" d="m-.67,356.81c.88,3,1.75,6,2.63,9,.29,1.71-.82,2.27-2.17,2.57-1.26.27-2.55.29-3.84.29-28.41.04-56.82.05-85.22-.01-2.27,0-4.71.29-6.37-1.89,0-7.84,0-15.69-.02-23.53,0-1.66.18-3.36-.64-4.92.53-.52,1.07-1.04,1.6-1.56,2.69-1.9,4.21-.61,5.74,1.78,2.49,3.88,2.62,3.79,6.28,1.16,1.45-1.04,2.92-2.06,4.34-3.12,1-.75,1.96-1.29,2.93.02.97,2.24,1.97,4.47,2.89,6.73.76,1.86,1.7,2.56,3.28.77.34-.38.74-.72,1.12-1.06,4.3-3.92,4.37-3.98,7.83.7,1.28,1.73,2.24,1.93,4.05.69,5.29-3.63,5.34-3.55,8.12,2.26q2.18,4.56,5.46.7,4.16-4.9,7.07,1.01,2.33,4.74,6.91,2.08c.78-.45,1.6-.86,2.28-1.43,2.15-1.8,3.25-1.01,4.12,1.35,1.53,4.14,1.61,4.11,5.61,2.74.24-.08.49-.15.74-.23q5.18-1.81,5.51,3.81c3.02,4.16,6.19.65,9.3.19.16-.01.31-.04.46-.09Z"/>
        <path class="cls-12" d="m594.58,498.29c.98-1.72,2.87-3.04,2.31-5.42.9-1.44.75-3.05.78-4.63,1.72.39,2.75,1.62,3.78,2.93.89,1.15,1.32,3.28,2.91,3.12,1.83-.18.97-2.57,1.81-3.75,1.15-2.46,2.74-3.23,5.72-3,3.26.25,6.55-1.08,10.02-1.02,17.03.29,34.07-.14,51.11-.01.52,0,1.23-.17,1.51.13,4.57,4.87,9.74,1.07,14.36.53,7.59-.88,15.14-.61,22.69-.64,22.02-.1,44.03-.06,66.05-.04,21.63.02,43.26.02,64.89.03,21.63,0,43.26,0,64.89-.02,21.5-.02,43.01-.01,64.51,0,13.39,0,26.78-.06,40.17.04,1.16,0,2.32-.13,3.46.2,3.3.94,3.93,3.05,1.71,5.71-1.68,2.01-3.95,3.29-5.96,4.89-1.94,1.54-4.31,2.22-6.68,3.65,75.86,0,151.37,0,227.97,0-5.8-4.52-11.14-7.74-16.24-11.28-1.5-1.04-3.58-1.92-2.81-4.48.35-.64.8-1.1,1.62-.9,3.54,4.13,8.57,6.1,13.07,8.78,12.82,7.65,25.92,14.83,38.25,23.29,5.1,3.5,10.9,5.67,16.52,8.12,2.66,1.16,2.77,2.51,1.78,4.76-.79,1.8-1.74,2.23-3.09.65-2.2-2.59-4.11-2.13-5.91.42-.79,1.12-1.82,2.15-3.21,1.35-1.94-1.12-4.24.94-4.93.4-3.41-2.65-6.38-.89-9.84-.64-3.33.25-6.09-.42-8.15,2.81-.28.44-1.19.85-1.68.73-2.81-.63-4.77.26-5.99,2.87-.15.32-.57.75-.85.73-4.68-.28-8.24,3.16-13.14,3.15-115.51-.22-231.03-.17-346.54-.19-1.48,0-3.05.41-4.98-.7,3.95-1.37,7.51-2.6,11.07-3.84,15.7-5.48,31.06-11.82,46.23-18.57,4.61-2.05,9.18-3.17,13.83-2.23,14,2.84,25.84-2.11,37.18-9.37,2.6-1.67,5.16-3.42,7.72-5.16.62-.42,1.45-.87,1.18-1.77-.27-.89-1.22-.83-1.97-.86-1.29-.05-2.58-.04-3.87-.04-121.32,0-242.63.01-363.95-.05-4.79,0-9.77.71-14.31-1.75-.31-.17-.86-.24-1.12-.08-4.44,2.91-9.32.01-13.89,1.11Z"/>
        <path class="cls-19" d="m1215.15,484.36c-.26.26-.52.51-.78.77-2.29,1.9-4.01-.73-6.07-.74-6.45-5.12-14.34-7.56-21.45-11.45-14.09-7.72-28.58-14.65-44.27-18.68-2.08-.54-4.98-1.02-3.11-4.52.7-.67,1.52-.86,2.47-.84,36.64.64,73.28.11,109.91.29,1.52,0,3.13-.28,4.28,1.14-1.45,3.76-2.39,7.65-3.07,11.6,0,0,0,0,0,0-.74.63-1.46.42-1.99-.23-1.3-1.6-2.37-.98-3.44.23-1.43,3.95-3.96,6.12-8.43,5.45-2.62-.39-4.39.95-5.54,3.24-.57,1.15-1.11,2.33-1.85,3.36-.96,1.33-1.25,3.52-2.87,3.9-1.78.42-2.08-1.88-3.09-2.92-1.66-1.72-2.76-.54-3.77.69-2.35,2.87-4.63,5.8-6.94,8.71Z"/>
        <path class="cls-14" d="m1247.64,461.93c.26-1.59.37-3.25,1.95-4.3,1.76,1,1.45,3.61,3.48,4.3-1.81,1.04-3.62-.18-5.43,0Z"/>
        <path class="cls-19" d="m1256.14,450.32c-2.24.68-4.54.79-6.87.79-34.09-.01-68.19-.03-102.28.03-2.55,0-5.11-.83-7.66-.04-1.4,2.49-3.6,1.46-5.51,1.11-10.36-1.9-20.69-2.11-31.05.09-6.6,1.4-12.76,3.97-18.9,6.63-1.39.6-2.7,1.57-4.35,1.28-1.84-1.41-3.45-3.04-5.92-3.66-1.7-.43-2.33-2.49-3-4.13-.22-.56-.18-1.41-.98-1.45-.83-.05-.95.74-1.05,1.36-.11.64-.2,1.27-.67,1.76-3.16.43-6.42,2.15-9.36-.67-.22-1.94-1.69-3.25-2.51-4.89.83,1.55.41,2.86-.75,4.04-.51.29-1.06.37-1.63.26-1.66-.97-3.32-4.96-4.96.02-.29.24-.62.39-.99.46-2.73-.51-2.84-3.07-3.64-4.95-.85-1.99-1.1-4.21-1.78-6.41-.21,2.12.15,4.18-.46,6.15-1.02,3.28-3.49,4.04-5.67,1.42-2.26-2.72-4.74-5.41-5.88-8.92-.56-3.37-3.33-6.03-3.12-9.65.38-1.61,1.58-2.72,2.43-4.04,1.05-.79,2.1-.07,3.15-.01.91-.09,2-.22,2.61.38,1.82,1.79,3.03,3.42,6.39,1.88,2.23-1.02,2.47,2.92,3.27,3.96,5.11,1.23,8.64-3.94,13.57-1.95,8.3-.69,16.59-1.09,24.87.1.8.05,1.59.03,2.39-.11,3.45-.68,6.89-.89,10.3.13,1.38.33,2.66,1.38,4.23.68,9.6-.96,19.22-.46,28.83-.58,2.95-.04,5.89.07,8.82.47.76-.08,1.46.21,2.18.36,49.62-.11,99.23-.03,148.85-.05,2.32,0,4.64-.07,6.96.12,1.41.12,2.89.17,3.55,1.81-.26.99-.4,2.02-.79,2.96-.89,2.13-2.23,2.55-3.58.46-1.85-2.87-2.86-1.4-3.97.55-.98,1.73-2.06,3.41-3.13,5.17-1.54-1.28-.69-3.36-2.75-4.39-1.78,2.98-3.58,5.99-5.61,9.38-1.82-2.57-.55-5.53-2.53-7.73-2.03,2-2.96,4.68-4.44,6.97-1.24,1.91-2.27,3.12-3.46,0-1.13-2.94-2.38-1.98-3.63-.07-.77,1.18-1.57,2.35-2.33,3.54-2.18,3.42-2.15,3.4-4.69.38-.56-.67-.84-2.67-2.45-1Z"/>
        <path class="cls-19" d="m1299.51,434.08c-51.14,0-102.27.03-153.41-.1-2.59,0-4.93,1.38-7.51.74.89-3.44-.27-6.91.23-10.41.46-3.24,1.7-4.99,5.11-4.74,9.92-1.7,19.91-.58,29.87-.8.47-.01.93-.02,1.41-.04,42.14-1.04,84.27-.28,126.41-.51,4.51-.02,9.01-.04,13.52.03,1.8.03,3.62.02,5.2,1.11-.42,4.61-1.32,9.12-3.19,13.39-.34.78-.64,1.95-1.71,1.75-.56-.1-1.07-1-1.43-1.64-1.16-2.08-2.24-4.21-4.16-6.29-.81,2.86-1.61,5.72-2.54,9.02-2.55-2.19-2.31-5.44-4.32-7.58-1.84,1.78-2.16,4.22-3.47,6.06Z"/>
        <path class="cls-19" d="m1320.34,419.38c-2.2,1.01-4.54.77-6.84.77-46.45,0-92.9,0-139.36,0-1.93-3.88-.99-6.33,2.83-7.01,1.71-.3,2.98-2.08,5.03-1.28.69.27.49-.67.53-1.08.25-2.66,1.69-3.14,3.94-2.2-.25-5.43-.17-5.48,6.55-4.21,24.71.04,49.41-.19,74.12.1,7.83.09,15.68-.1,23.53-.13,2.33,0,4.67.02,6.45,1.9,1.21,1.66,2.4,3.32,3.63,4.97.44.59.84,1.49,1.74,1.15.84-.31.76-1.28.77-2.02.04-2.61.02-5.22.57-7.88,2.62,3.58,2.65,7.91,4.36,11.85,1.56-1,.82-2.89,1.83-4.02,1.82.26,1.38,2.63,2.93,3.2,1.02-1.03.05-2.47.89-3.81,2.07,1.38,2.17,4.18,4.19,5.75.84-1,1.69-2.02,2.55-3.03-.08,2.32-.15,4.64-.23,6.96Z"/>
        <path class="cls-13" d="m341.47,434.74c13.2-7.32,26.4-14.64,39.59-21.98,2.34-1.31,4.61-2.75,6.92-4.13,2.59-1.28,5.17-2.56,7.76-3.84,50.77-1.09,101.54-.15,152.31-.55,3.16-.02,6.39,1.4,9.5-.25,1.43-1.25,2.88-.66,4.27.04,7.39,3.76,15,7.05,22.38,10.8,6.94,3.12,13.79,6.43,20.49,10.06,1,.54,2.15.8,2.98,1.64,3.07,1.75,6.62,2.46,9.6,4.39,1.25.81,2.87,1.29,2.83,3.23-.51,1.59-1.71,2.16-3.27,2.21-1.03.03-2.06.05-3.09.05-88.45,0-176.89,0-265.34,0-2.43,0-4.96.3-6.93-1.66Z"/>
        <path class="cls-13" d="m558.97,404.9c-1.43,1.45-3.27,1.32-5.08,1.32-51.05,0-102.09,0-153.14,0-1.8,0-3.66.15-5.01-1.44,7.62-5.05,15.78-9.12,23.93-13.2,10.59-5.3,21.42-10.06,32.63-13.94,7.38-1.59,14.71-3.49,22.29-3.98,4.68-.59,9.36-.42,14.04-.08,5.18.53,10.26,1.62,15.32,2.83,7.98,2.89,15.5,6.71,22.7,11.2,1.08.67,2.26,1.16,3.4,1.74,2.79.23,5.36,1.04,7.78,2.53,5.53,3.41,11.58,5.88,17.08,9.35,1.26,1.32,4.13.86,4.06,3.66Z"/>
        <path class="cls-11" d="m-95.64,366.77c30.54,0,61.07,0,91.61,0,2.04,0,4.15.32,6-.95.16.02.32.05.48.1,2.43-.42,4.97-1.76,7.03.87,1.12,3.63,1.92-.16,2.89-.12,2.48-1.42,4.94-2.41,7.36.11q2.43,4.3,6.78,1.97c.56-.3,1.13-.61,1.7-.89,3.26-1.57,3.65-1.34,3.82,2.27q.21,4.5,4.43,3.04,5.84-2.02,7.68,3.78c2.5,2.2,5.31.77,8,.67,2.95-.4,5.44-3.34,8.77-1.56.46.91.89,1.84,1.37,2.74,2.63,4.87,2.68,4.91,6.15.7,1.3-1.58,2.12-1.75,2.77.37.56,1.83,1.08,3.68,1.62,5.51-56.16,0-112.31-.01-168.47-.02,0-6.19,0-12.38,0-18.57Z"/>
        <path class="cls-12" d="m1208.96,482.83c3.3-2.74,3.76,1.17,5.41,2.3.52,1.44,1.7,2.26,2.92,2.97,6.34,3.68,11.85,8.68,18.61,11.71.97.44,2.52.86,2.06,2.33-.37,1.19-1.78.69-2.75.78-.77.07-1.55.02-2.32.02-75.81,0-151.62,0-227.43-.02-1.64,0-3.34.37-5.29-.62,1.06-2.39,3.35-3.08,5.33-3.96,3.7-1.64,6.89-4.01,9.94-6.59.65-.55,1.65-1.16,1.26-2.19-.36-.94-1.44-1.07-2.32-1.07-8.83,0-17.66.08-26.49.1-9.47.02-18.94,0-28.4,0-9.09,0-18.17,0-27.26,0-9.47,0-18.94,0-28.4,0-9.09,0-18.17-.01-27.26,0-9.47,0-18.94,0-28.4.02-9.21,0-18.43.03-27.64.03-9.34,0-18.68-.02-28.02-.02-9.21,0-18.43,0-27.64.02-9.21.01-18.43.04-27.64.05-9.47,0-18.94.02-28.4,0-7.05-.02-14.09-.23-21.13.31-2.06.16-4.12.1-6.07.95-.97.42-2.04.66-3.01.17-5.99-3.02-12.38-1.17-18.56-1.44-9.58-.41-19.19-.18-28.78-.08-7.17.08-14.33.33-21.49.66-1.22.06-2.4.86-3.6,1.32-.08-2.11.2-4.17.79-6.19,1.29-1.24,2.58-1.23,3.87,0,1.03,1.86,2.05,1.86,3.08,0,2.47-3.52,2.56-3.53,6.2-.77.26,0,.51,0,.77,0,2.03-1.27,3.92-1.58,5.42.77.26,0,.51,0,.77,0,2.11-4.17,6.41-2.74,9.51-3.02,8.75-.79,17.59-.53,26.4-.41,2.16.03,4.29.02,5.75,2.13.64.93,1.77,1.24,2.63.21,2.7-3.23,4.34-1.07,6.01,1.1.73,1.43,1.46,2.87,2.2,4.32,1.19-.67.87-1.73,1.24-2.5.22-.46.36-.97.65-1.39,1.35-1.95,2.28,2.49,3.64.27.99-1.63,1.79-2.34,3.43-.42.92,1.08.97-.47,1.23-1.05.99-1.25,1.71-3.16,3.85-1.54.47.61.33,1.88,1.4,1.77.75-.08.74-1.1.94-1.77,1.2-1.91,2.94-2.64,5.17-2.65,9.11-.06,18.28-.68,27.31.23,5.69.57,11.15-.85,16.73-.29,2.22.22,4.34.37,5.93,2.13,1.08.89,1.88.22,2.67-.52,1.55-1.49,3.51-1.54,5.44-1.55,14.96-.08,29.92-.07,44.88,0,1.67,0,3.36.01,4.86.95.79.49,1.71.86,2.55.33,3.08-1.94,6.5-1.29,9.79-1.29,69.64-.04,139.29.6,208.92-.24,53-.63,105.99-.11,158.97-.63,6.24-.06,12.12.66,17.55,3.88.68.4,1.44.55,2.24.43Z"/>
        <path class="cls-12" d="m751.65,482.82c-5.18-2.27-10.5-2.01-15.84-.76-1.03.24-1.95.34-3.01.18-11.75-1.85-23.56-.96-35.35-.53-.5.02-1,.22-1.5.34.85-4.14,1.65-8.28,2.55-12.41.72-3.33.85-3.34,4.04-.79.39-2.04.74-3.86,1.1-5.67.15-.72.05-1.73,1-1.87,1.13-.16,1.42.9,1.74,1.71.83,2.11.89,4.52,2.46,6.44,2.1-1.2-.11-4.35,2.36-5.11,1.03-.32,1.03,1.32,2.18,1.72,1.02-1.78,1.13-3.75,1.09-5.76.26-3.31.51-6.63.77-9.94.23-.07.47-.14.7-.21,1.12,2.94,2.23,5.87,3.34,8.79,2.03-.5,1.62-2.51,3.06-3.49,1.56,2.12,1.75,4.65,2.27,7.05,2.26,1.9,3.13,5.52,7.12,5.34,1.18-.05,1.24,1.68,1.42,2.82.23,1.51.35,3.03.62,5.21-.4-4.64-2.05-8.7.99-12.36-.1-1.89-.44-3.79.38-6,3.11,2.14,2.96,6.28,5.67,8.38,2.15,3.09,5.14,1.31,7.82,1.36l.02-.04c3.74,4.68,4.23,9.98,2.99,15.61Z"/>
        <path class="cls-14" d="m677.37,484.37c-1.86-.99-3.69-1.92-5.69-.25-.88.73-1.97.71-2.89.09-2.42-1.63-5.14-1.42-7.83-1.39-9.88.11-19.75.31-29.63.29-1.9,0-2.5,1.6-3.87,2.14-.07.03-.28-.08-.3-.16-.06-.24-.06-.49-.09-.73.93-2.63.53-5.6,2.03-8.27,1.88.82,1.84,3.22,3.76,4.02,1.4-1.62,1.02-3.61,1.26-5.44.08-.63.14-1.38.85-1.6.98-.3,1.3.54,1.66,1.2.18.34.26.73.45,1.06.84,1.48.8,4.25,2.86,4,1.8-.22,1.7-2.9,2.23-4.55.78-2.44,1.29-4.96,1.92-7.45.87-.83.42-4.31,3.09-1.54.1,3.26,1.38,6.12,2.57,9.09,2.61-1.01,1.36-4.12,3.7-5.12,1.42,1.95.96,4.47,2.11,6.88,2.32-2.09,1.27-5.31,3.11-7.57,1.82,2.12.13,4.79,1.29,6.82.24-.06.58-.03.68-.18q2.83-3.8,5.31.4c.98,1.66,1.88,3.36,2.85,5.03.37.63.64,1.63,1.61,1.28.49-.18.89-.89,1.12-1.44.74-1.84.77-3.98,2.43-5.88,1.8,3.1,2.47,6.23,3.39,9.25Z"/>
        <path class="cls-14" d="m620.11,483.59c-2.15-.41-4.27-.55-6.2.77.52-2.84,1.04-5.67,1.56-8.51,1.15-2.07,2.21-2.15,2.88.25.69,2.47,1.18,4.99,1.76,7.49Z"/>
        <path class="cls-14" d="m626.3,484.37c-1.81-.26-3.62-.52-5.42-.77.91-1.96,1.81-3.92,3-6.49,1.6,2.6,1.7,5.05,2.42,7.27Z"/>
        <path class="cls-16" d="m647.19,465.81c-1.57-.57-2.23.68-3.09,1.54-.21-1.5-.52-3-.59-4.51-.05-1,.15-2.23,1.38-2.42,1.35-.2,1.57,1.01,1.76,2.01.22,1.12.37,2.25.54,3.38Z"/>
        <path class="cls-6" d="m693.61,482.05c-1.48.04-2.68.76-3.85,1.54.11-.48.14-1.01.36-1.44.64-1.25-.31-3.67,1.53-3.72,1.62-.05,1.46,2.28,1.96,3.62Z"/>
        <path class="cls-14" d="m610.83,484.36c-1.29,0-2.58,0-3.87,0,.32-1.98.64-3.95,1.1-6.78,2.15,2.42,2.7,4.5,2.77,6.78Z"/>
        <path class="cls-9" d="m19.72,366.76c-2.45-.04-4.91-.07-7.36-.11.27-.44.47-.94.82-1.3,1.32-1.33,2.15-4.16,3.9-3.76,1.85.42,2.32,3.11,2.64,5.17Z"/>
        <path class="cls-9" d="m9.47,366.78c-2.39.08-4.74-.13-7.03-.87.67-.57,1.27-1.25,2.02-1.68,1.57-.9,2.91-3.41,4.64-2.45,1.27.7.43,3.26.37,4.99Z"/>
        <path class="cls-10" d="m488.64,373.59c-4.68.03-9.36.05-14.04.08,4.67-1.16,9.35-1.16,14.04-.08Z"/>
        <path class="cls-12" d="m1208.96,482.83c-.84.5-1.72.59-2.59.17-5.67-2.73-11.74-2.52-17.81-2.52-46.65.03-93.31-.6-139.95.16-76.92,1.25-153.83.15-230.75.63-2.06.01-4.14-.15-5.95,1.18-.3.22-.75.45-1.07.38-16.92-3.57-34.04-.6-51.03-1.56-2.34-.13-4.65,0-6.62,1.54-1.71-3.09-1.1-6.19,0-9.26.43-1.2,1.51-1.78,2.7-1.84,1.59-.07,2.53-1.04,3.49-2.06.62-4.26,1.25-8.51,1.87-12.77.25-.07.51-.15.76-.22,1.39,3.02,2.78,6.05,4.23,9.2,2.69-3.43,1.03-7.36,2.57-10.99,2.66,3.81,4.22,8.14,6.18,12.27,1.01-1.34.97-1.34,1.03-2.93.15-3.84-.37-7.69.29-11.51.01-.08.21-.15.33-.18.2-.06.35.09.45.41,3.02,5.08,6.04,10.17,9.33,15.71,2.84-3.27.58-7.44,3.1-10.43,1.7,1.7,1.7,4.38,3.51,6.8.53-3.96.99-7.39,1.45-10.82l.9-.4c2.72,5.74,5.44,11.48,8.47,17.89.56-2.35.93-3.91,1.54-6.48,1.58,5.5,2.87,10.01,4.16,14.51,2.48-.05,3.12-12.34,3.53-14.95.04-.23.09-.49.29-.63.18-.12.42-.09.62-.01.79.31,1.14,1.21,1.56,1.96s1.26,1.47,2.04,1.11c.33-.15.54-.47.81-.72.84-.8,2.1-.91,3.26-.95,24.19-.98,48.59-.11,72.8-.11,24.67,0,49.34,0,74.02,0,27.63.01,55.27.04,82.9.09,8.13.02,15.58-1.56,22.53-5.67,1.56-.92,3.14-1.88,5.07-1.02,6.39-2.36,12.4-5.7,19.04-7.45,11.52-3.05,23.13-3.39,34.83-1.32,2.15.38,4.32.7,6.48,1.05,6.11,1.98,12.3,3.74,18.3,5.99,14.5,5.42,28.07,12.8,41.58,20.26,3.26,1.8,6.5,3.65,9.75,5.47Z"/>
        <path class="cls-19" d="m1191.16,406.99c.83-2.72.69-5.54.84-8.33.04-.73-.23-1.82.6-2.04,1.09-.28,1.22,1.02,1.75,1.65,2.22-.77.91-2.6,1.01-3.86.23-3.09.08-3.11,1.18-4.32.53,1.83,1.06,3.66,1.7,5.85,1.49-1.81.99-3.75,1.77-5.37,1.55.78,1.04,2.87,2.62,3.83,1.66-1.75.35-4.18,1.6-6.67,1.18,2.88,2.2,5.37,3.24,7.92,1.53-.51.18-2.25,1.62-2.83,1.18,2.2,2.37,4.42,3.56,6.65,1.16-4.54.74-9.21,1.99-13.66,1.28.3,1.19,1.56,1.87,2.01.94.62.44,4.21,3.12,1.58.38-.37.82.92,1.32,1.1,1.12.41.67,4.73,3.29,1.38.45.43.93.83,1.33,1.3.81.94,1.09,2.36,2.46,2.82q1.84-4.15,3.38-3.67c3.05-1.26,6.26-1.22,9.48-1.2,4.83.03,9.65.65,14.48.29,2.08-.16,3.78.47,5.38,1.65,3.29,1.46.35-2.64,2.71-2.21,1.07,3.34,2.27,7.07,3.47,10.8,1.21-4.59,1.11-9.25,2.38-14.22,2.67,2.59,2.83,5.95,4.67,8.31,1.29-.41.27-1.79,1.29-2.26,1.57.64,1.09,3.04,3.11,3.79.12-2.01.23-3.87.35-5.95,1.63.67,1.25,2.56,2.63,3.46.97-3.02-.27-6.35,1.25-9.29,1.79.84,1.98,2.65,3.08,3.62.83.72.57,3.69,3.14,1.66.81-.64.82.93.94,1.48.52,2.37.89,4.78,1.37,7.47,1.79-.9,1.19-2.97,2.66-3.97,1.64,3.36,2.51,6.9,3.31,10.47-33.3,0-66.59,0-99.89-.03-2.07,0-4.09.19-6.07.79Z"/>
        <path class="cls-19" d="m1260.75,393.09c-8.16,0-16.32,0-24.48-.01-1.65,0-3.33.11-4.86-.72,1.64-2.99.12-6.35,1.11-9.57,1.67.74,1.39,2.75,2.89,3.86v-3.87c1.26-.22,1.34,1.5,2.42,1.43,1.13-1.07-.03-2.75,1.08-4.12,1.06.21,2.11,3.68,3.69.25.43-.94,1.29.73,1.65,1.4,1.47,2.67,2.83,5.4,4.32,8.28,1.95-1.85,1.3-4.31,2.78-6.02,1.95.96,1.68,3.67,3.52,4.75,1.16-1.64-.11-3.63,1.19-5.41,2.04,3.16,3.47,6.41,4.71,9.76Z"/>
        <path class="cls-12" d="m1078.98,458.82c-7.87,5.54-16.27,8.68-26.25,8.65-78.4-.22-156.8-.12-235.2-.12v-19.24c2.48.49,2.8,3.32,5.37,3.8.8-4.34,1.6-8.66,2.4-12.98.26-.04.52-.07.78-.11,1.27,2.61,2.53,5.22,3.95,8.14,1.57-3.98,1.23-7.92,1.63-11.72.34-.04.68-.08,1.02-.12,1.17,2.99,2.33,5.98,3.9,10,1.39-4.46,2.46-7.93,3.87-12.47,3.3,6.49,4.3,12.73,6.86,18.5,1.98-1.01,1.29-3.48,3.21-4.67,2.57,4.84,5.12,9.65,8.1,15.27.67-3.46,1.16-6.01,1.7-8.83,2.65,1.01,2.18,4.11,4.33,5.57,1.91-2.31,1.78-5.53,3.32-7.99,2.76,1.19,2.12,5.24,5.26,5.96.46-.96.25-1.98.26-2.97.03-2.42,1.19-3.15,3.41-2.36.28.54.55,1.08.83,1.63,1.57.06,1.42-2.09,2.85-2.22,2.13-.71,4.33-.57,6.51-.57,47.87-.02,95.74.01,143.61-.06,4.1,0,8.11,1.48,12.26.4,2.17-.56,2.88,2.52,5.01,2.33h0c1.46-2.74,3.32-2.64,5.43-.77.51,0,1.01,0,1.52,0,1.91-1.88,3.31-.68,4.66.78.6.1,1.49.51,1.74.27,2.25-2.18,4.08-.56,5.99.51,1.24-1.48,2.24-3.67,4.67-1.55,1.3,1.32,1.49,3.61,4.82,2.36,2.24-.84,1.85,2.75,2.14,4.59Z"/>
        <path class="cls-12" d="m1048.02,452.64c-56.21-1.75-112.43-.28-168.65-.77-.9-3.89-.27-7.82-.34-11.74,0-.54.56-.78,1.13-.72,1.06-.02,2,4.2,3.16.09,1.5-2.17,3.82-1.87,5.97-1.89,11.97-.1,23.95-.04,35.92-.04,32.7,0,65.4,0,98.1,0,3.12,0,6.23-.06,8.44,2.71,1.71,2.42,3.4,4.84,5.12,7.25.5.7.86,1.86,1.9,1.65,1.25-.24,1.21-1.56,1.32-2.53.39-3.28-.13-6.7,1.54-10.11,2.48,1.9,2.18,4.84,3.14,7.17,1.2,2.93.76,6.45,3.23,8.93Z"/>
        <path class="cls-12" d="m1031.76,440.28c-3.17-.67-6.37-.8-9.61-.8-46.28.03-92.55.03-138.83.03-.07-4.4,1.13-8.74.7-13.16.05-1.67,1.06-1.04,1.91-.81.8.21.54,1.85,1.67,1.39.35-.14-.07-1.11-.28-1.69-.61-3.07.02-5.88,1.82-8.42,4.22-.49,3.31,3,4.06,4.69.32-1.45-1.23-4.42,2.11-4.93,2.71-.41,2.76,2.27,3.46,4.03-.35-1.16-.46-2.34-.39-3.55.09-1.7.15-3.52,2.28-3.94,2.1-.41,2.92,1.11,3.62,2.73,1.08,2.5,1.52,5.13,1.77,7.81-.11-1.32-.2-2.72,1.42-3.13,1.55-.38,2.29.83,2.96,1.96.73,1.22,1.39,2.48,1.86,3.8.54,1.5,1.44.44,2.21.43,5.51-1.59,11.11-.28,16.65-.58.63-.03,1.26.03,1.88-.12,1.46-.38,2.9.4,4.37.13,15.3-.26,30.6-.43,45.89.1.92.03,1.77.29,2.64.44,2.43.08,2.63,1.89,2.67,2.65-.1-1.11-.27-3.23,1.77-4.74,2.25-1.05,4.59-.72,6.91-.48,2.7-1.79,5.29.1,7.94.24,1.23-.28,2.46-.34,3.71-.2.54,0,1.07-.02,1.61-.06,2.12-.48,4.27-.45,6.43-.44,2.33,0,4.6.02,5.86,2.54.24.47.82,1.17,1.37.09.53-1.58,1.22-3.08,3.22-2.45,1.6.51,1.73,1.96,1.46,3.39-.23,1.22.44,2.48-.2,3.67,1.02,3.13,2.04,6.26,3.06,9.38Z"/>
        <path class="cls-19" d="m1138.36,433.33c-13.08,0-26.15,0-39.23-.01-2.26-1.93-1.27-4.44.04-5.77,2.15-2.2,2.56-4.61,2.69-7.34.14-2.84.94-4.93,4.47-3.74.39.13.58.52,1.2-.06,3.26-3.07,3.79-2.84,5.48,1.99q-.27-2.81,1.04-5.5c.32-.2.67-.29,1.04-.31,2.9,1.66,4.25,4.64,6.35,7.83-.16-4.33,5.18-2.99,5.44-6.56.29-.25.62-.41.99-.5,1.58,0,2.12,1.3,2.76,2.34,1.9,3.09,3.28,6.31,6.51,8.71,2.46,1.82,2.13,5.73,1.21,8.93Z"/>
        <path class="cls-19" d="m1071.79,412.52c.54,1.31,1.03,2.64,1.64,3.91.49,1.03.42,3.44,2.53.96,1.09-1.28,1.37.35,1.58,1.06.93,3.04,1.77,6.1,2.64,9.12,1.6-.18.93-1.93,2.47-2.3.52,2.42,1.04,4.85,1.57,7.29-7.27,0-14.54-.02-21.81.06-1.38.01-2.76.43-4.14.66.4-2.01.59-4.1,1.28-6,.32-.89-.88-4.4,2.53-2.15.61.4.69-.82.78-1.36.31-1.76.56-3.53,1.01-6.52,1.24,3.59,2.12,6.13,3.04,8.8,1.61-1.34.78-3.13,1.49-4.5,1.45-.2.69,1.81,2.03,1.91.92-3.36.83-6.81.81-10.26-.34-.65,0-.73.54-.68Z"/>
        <path class="cls-19" d="m1085.22,433.3c0-2.06.01-4.11.02-6.17.66-2.47.11-4.99.32-7.47.06-.75-.4-1.93,1.13-1.79,1.05,2.06,2.08,4.13,3.17,6.16,1.24,2.31,2.23,6.23,4.72.04,1.49,3.21,1.96,5.8,2.16,8.47-3.84.24-7.75-.63-11.51.76Z"/>
        <path class="cls-19" d="m1059.62,452.65c-1.55-.26-3.11-.52-4.66-.78-.26-2.67-1.33-5.33-.18-8.6,2.4,3.14,3.77,6.18,4.84,9.38Z"/>
        <path class="cls-19" d="m1053.45,451.87c-1.85,0-3.7-.02-5.43.78.23-2.36-.31-6.12,1.9-6.43,2.23-.31,2.63,3.48,3.53,5.65Z"/>
        <path class="cls-19" d="m1072.02,451.87c-1.56.52-3.11,1.03-4.67,1.55.36-2.45.71-4.89,1.17-8.02,2.07,2.27,2.85,4.33,3.5,6.47Z"/>
        <path class="cls-19" d="m1144.09,420.94c.27-3.55-1-7.2.69-10.65,2.37-.63,2.34-2.77,2.79-4.56.34-1.34.85-2.45,2.36-2.62,1.6-.18,2.31.82,2.62,2.02-.23-1.96.76-3.48,2.76-3.87,1.85-.36,2.35,1.25,2.63,2.62.21-1.56,1.33-2.67,2.41-3.8,3.17,3.59,2.95,8.63,5.38,12.61,1.39.02.99-2.2,2.3-2.02,1.31.18,1.6,1.56,2.1,2.54,1.17,2.27,2.21,4.61,3.3,6.92-7.45,1.32-14.98.4-22.47.71-2.29.1-4.58.07-6.87.1Z"/>
        <path class="cls-13" d="m759.39,469.66c-.1,1.38-.07,2.79-.33,4.14-.27,1.39-.79,2.68-2.35.79-1.29-1.56-1.91-.58-2.18.76-.5,2.47-.9,4.97-1.34,7.46-.51.35-1.03,1.03-1.54,0-1.18-5.17-2.49-10.31-2.99-15.61,3.73.16,6.94,2.61,10.74,2.45Z"/>
        <path class="cls-16" d="m734.77,463.52v16.22c-.36.02-.72.05-1.09.07-.51-2.3-.94-4.63-1.57-6.9-.36-1.3-.09-3.35-1.59-3.63-1.83-.34-.9,2.41-2.7,3.12-1.62-3.09-2.14-6.59-3.21-9.88,3.34.75,6.6,2.36,10.16,1.01Z"/>
        <path class="cls-16" d="m748.63,467.25c-.45.22-.98.36-1.34.68q-4.35,3.94-6.48-2.04c2.67.07,5.29.49,7.82,1.36Z"/>
        <path class="cls-17" d="m876.93,451.12c-2.97.58-2.85,3.28-3.68,5.33,0-3.44,0-6.88,0-11.01,2.36,1.73,2.85,3.82,3.68,5.68Z"/>
        <path class="cls-7" d="m880.16,439.42c-1.61,4.06-.53,8.3-.79,12.45q-.48,1.76-1.6.88c1.61-3.77.34-7.74.86-11.57.09-.65-1.15-3.15,1.54-1.76Z"/>
        <path class="cls-12" d="m941.98,407.28c.32,1.78,1.13,3.28,2.36,4.65,1.66-1.34.44-2.88,1.02-4.5.94,1.08,1.77,2.05,2.81,3.24,1.59-2.06.23-4.6,1.32-6.68.48.27.84.39,1.09.62,1.09.97,1.16,3.37,2.93,3.08,1.47-.24.47-2.62,1.88-3.83,3.5,4.54,5.01,10.21,8.53,15.15,1.82-3.11,1.8-6.46,3.4-9.88,1.44,2.63,2.68,4.9,4.33,7.91.62-3.43,1.1-6.06,1.75-9.62,2.93,6.04,5.46,11.27,8.43,17.41.59-2.92.96-4.76,1.47-7.27,1.75,3.74,2.73,7,3.51,10.34-16.95,0-33.91,0-50.86,0-2.5-4.05-1.8-7.73,1.93-10,2.03-1.23,3-2.95,3.04-5.4.03-1.84-.74-3.82.54-5.55.03-.04.21,0,.28.05.1.07.18.19.26.28Z"/>
        <path class="cls-12" d="m914.27,427.89c-.6-5.65,1.16-11.1.83-16.73.32-.06.64-.13.96-.19,1.69,2.95,3.39,5.9,5.26,9.17,1-1.34.12-3.06,1.31-3.96,2.52.07,10.08,4.39,11,6.42.65,1.42,1.63,2.89.46,4.53-6.56,1.54-13.22.44-19.83.77Z"/>
        <path class="cls-12" d="m1010.15,425.57v-15.78c2.5.95,2.77,3.01,4.04,4.17,1.19,2.25,2.33,4.53,4.02,6.37,1.68-.44.74-2.26,2.02-2.9.19.24.48.48.59.78,1,2.77,1.96,5.55,2.93,8.34.3.86.5,1.85,1.81,1.27-.36,1.48-.75,2.95-1.79,4.12-.27-.1-.64-.12-.68-.26q-2-6.1-8.73-6.11c-1.4,0-2.81,0-4.21,0Z"/>
        <path class="cls-12" d="m990.88,425.57c.13-4.08.66-8.1,2.32-12.25,1.8,4.33,3.6,8.65,5.41,12.98-2.58-.24-5.15-.49-7.73-.73Z"/>
        <path class="cls-12" d="m1005.58,425.57v-7.15c.25-.05.5-.1.75-.15,1.07,2.67,2.14,5.35,3.21,8.02-1.32-.24-2.64-.48-3.96-.73Z"/>
        <path class="cls-15" d="m1086.69,417.87c-1.57,2.92-.02,6.32-1.45,9.26,0-2.82-.05-5.63,0-8.44.02-.86.12-2.06,1.45-.81Z"/>
      </g>
    </g>
    <path class="cls-5" d="m572.58,363.7c2.05.83,4.22,2.04,6.22,3.85,1.62,1.47,1.89,2.21,2.96,2.37,2.25.34,3.42-2.58,7.11-4.15,1.99-.85,3.86-.93,5.04-.89"/>
    <path class="cls-5" d="m652.07,382.81c2.05.83,4.22,2.04,6.22,3.85,1.62,1.47,1.89,2.21,2.96,2.37,2.25.34,3.42-2.58,7.11-4.15,1.99-.85,3.86-.93,5.04-.89"/>
    <path class="cls-5" d="m606.35,406.14c1.25.51,2.58,1.24,3.8,2.35.99.9,1.16,1.35,1.81,1.45,1.37.21,2.09-1.58,4.34-2.53,1.22-.52,2.36-.57,3.08-.54"/>
    <path class="cls-5" d="m684.07,409.64c1.13.45,2.32,1.12,3.42,2.12.89.81,1.04,1.21,1.63,1.3,1.23.19,1.88-1.42,3.91-2.28,1.1-.46,2.12-.51,2.77-.49"/>
    <path class="cls-5" d="m509.47,344.33c1.21.49,2.49,1.2,3.68,2.28.96.87,1.12,1.31,1.75,1.4,1.33.2,2.02-1.53,4.2-2.45,1.18-.5,2.28-.55,2.98-.53"/>
  </g>
</svg>