<?xml version="1.0" encoding="UTF-8"?>
<svg id="Layer_2" data-name="Layer 2" xmlns="http://www.w3.org/2000/svg" viewBox="0 0 775.38 706">
  <defs>
    <style>
      .cls-1 {
        fill: #ff4b59;
      }
    </style>
  </defs>
  <g id="Layer_1-2" data-name="Layer 1">
    <g>
      <path class="cls-1" d="m707.6,67.94C663.8,24.13,605.56,0,543.62,0,485.42,0,430.5,21.29,387.76,60.19,345,21.29,290.08,0,231.88,0c-61.94,0-120.17,24.11-163.96,67.91C24.12,111.71,0,169.95,0,231.89s24.12,120.17,67.92,163.96l303.26,303.28c4.4,4.4,10.35,6.86,16.57,6.86s12.18-2.48,16.57-6.86l294.78-294.78,8.5-8.48c90.36-90.44,90.36-237.55-.02-327.94h0Z"/>
      <path class="cls-1" d="m674.48,362.71l-286.73,286.71L101.06,362.71c-34.95-34.94-54.19-81.4-54.19-130.82s19.25-95.89,54.19-130.84c34.94-34.94,81.4-54.18,130.82-54.18s95.9,19.25,130.84,54.19l8.46,8.46c9.16,9.16,23.99,9.17,33.12.02l8.49-8.48c34.95-34.95,81.41-54.19,130.82-54.19s95.89,19.26,130.84,54.21c72.1,72.11,72.1,189.5.03,261.63h0Z"/>
    </g>
  </g>
</svg>